<?xml version="1.0" encoding="UTF-8" standalone="no"?>
<!DOCTYPE svg PUBLIC "-//W3C//DTD SVG 1.1//EN" "http://www.w3.org/Graphics/SVG/1.1/DTD/svg11.dtd"
[
<!ATTLIST g
  xmlns:vectornator CDATA #FIXED "http://vectornator.io"
  vectornator:layerName CDATA #IMPLIED >
<!ATTLIST g
  xmlns:vectornator CDATA #FIXED "http://vectornator.io"
  vectornator:mask CDATA #IMPLIED >
<!ATTLIST text
  xmlns:vectornator CDATA #FIXED "http://vectornator.io"
  vectornator:width CDATA #IMPLIED >
<!ATTLIST text
  xmlns:vectornator CDATA #FIXED "http://vectornator.io"
  vectornator:text CDATA #IMPLIED >

<!ATTLIST path
  xmlns:vectornator CDATA #FIXED "http://vectornator.io"
  vectornator:blendMode CDATA #IMPLIED >
<!ATTLIST path
  xmlns:vectornator CDATA #FIXED "http://vectornator.io"
  vectornator:shadowColor CDATA #IMPLIED >
<!ATTLIST path
  xmlns:vectornator CDATA #FIXED "http://vectornator.io"
  vectornator:shadowOpacity CDATA #IMPLIED >
<!ATTLIST path
  xmlns:vectornator CDATA #FIXED "http://vectornator.io"
  vectornator:shadowRadius CDATA #IMPLIED >
<!ATTLIST path
  xmlns:vectornator CDATA #FIXED "http://vectornator.io"
  vectornator:shadowOffset CDATA #IMPLIED >
<!ATTLIST path
  xmlns:vectornator CDATA #FIXED "http://vectornator.io"
  vectornator:shadowAngle CDATA #IMPLIED >

<!ATTLIST image
  xmlns:vectornator CDATA #FIXED "http://vectornator.io"
  vectornator:blendMode CDATA #IMPLIED >
<!ATTLIST image
  xmlns:vectornator CDATA #FIXED "http://vectornator.io"
  vectornator:shadowColor CDATA #IMPLIED >
<!ATTLIST image
  xmlns:vectornator CDATA #FIXED "http://vectornator.io"
  vectornator:shadowOpacity CDATA #IMPLIED >
<!ATTLIST image
  xmlns:vectornator CDATA #FIXED "http://vectornator.io"
  vectornator:shadowRadius CDATA #IMPLIED >
<!ATTLIST image
  xmlns:vectornator CDATA #FIXED "http://vectornator.io"
  vectornator:shadowOffset CDATA #IMPLIED >
<!ATTLIST image
  xmlns:vectornator CDATA #FIXED "http://vectornator.io"
  vectornator:shadowAngle CDATA #IMPLIED >

<!ATTLIST g
  xmlns:vectornator CDATA #FIXED "http://vectornator.io"
  vectornator:blendMode CDATA #IMPLIED >
<!ATTLIST g
  xmlns:vectornator CDATA #FIXED "http://vectornator.io"
  vectornator:shadowColor CDATA #IMPLIED >
<!ATTLIST g
  xmlns:vectornator CDATA #FIXED "http://vectornator.io"
  vectornator:shadowOpacity CDATA #IMPLIED >
<!ATTLIST g
  xmlns:vectornator CDATA #FIXED "http://vectornator.io"
  vectornator:shadowRadius CDATA #IMPLIED >
<!ATTLIST g
  xmlns:vectornator CDATA #FIXED "http://vectornator.io"
  vectornator:shadowOffset CDATA #IMPLIED >
<!ATTLIST g
  xmlns:vectornator CDATA #FIXED "http://vectornator.io"
  vectornator:shadowAngle CDATA #IMPLIED >

<!ENTITY % SVG.filter.extra.content  "| feDropShadow" >
<!ELEMENT feDropShadow EMPTY>
<!ATTLIST feDropShadow
  xmlns:svg CDATA #FIXED "http://www.w3.org/Graphics/SVG/1.1/DTD/svg11.dtd"
  dx CDATA #IMPLIED>
<!ATTLIST feDropShadow
  xmlns:svg CDATA #FIXED "http://www.w3.org/Graphics/SVG/1.1/DTD/svg11.dtd"
  dy CDATA #IMPLIED>
<!ATTLIST feDropShadow
  xmlns:svg CDATA #FIXED "http://www.w3.org/Graphics/SVG/1.1/DTD/svg11.dtd"
  stdDeviation CDATA #IMPLIED>
<!ATTLIST feDropShadow
  xmlns:svg CDATA #FIXED "http://www.w3.org/Graphics/SVG/1.1/DTD/svg11.dtd"
  flood-opacity CDATA #IMPLIED>
<!ATTLIST feDropShadow
  xmlns:svg CDATA #FIXED "http://www.w3.org/Graphics/SVG/1.1/DTD/svg11.dtd"
  in CDATA #IMPLIED>
<!ATTLIST feDropShadow
  xmlns:svg CDATA #FIXED "http://www.w3.org/Graphics/SVG/1.1/DTD/svg11.dtd"
  result CDATA #IMPLIED>
<!ATTLIST feDropShadow
  xmlns:svg CDATA #FIXED "http://www.w3.org/Graphics/SVG/1.1/DTD/svg11.dtd"
  flood-color CDATA #IMPLIED>
]
>
<!-- Created with Vectornator (http://vectornator.io/) -->
<svg height="100%" stroke-miterlimit="10" style="fill-rule:nonzero;clip-rule:evenodd;stroke-linecap:round;stroke-linejoin:round;" version="1.1" viewBox="0 0 1466.41 1134.06" width="100%" xml:space="preserve" xmlns="http://www.w3.org/2000/svg" xmlns:vectornator="http://vectornator.io" xmlns:xlink="http://www.w3.org/1999/xlink">
<defs/>
<g id="혈통" vectornator:layerName="혈통"/>
<g id="Since-1975-복사" vectornator:layerName="Since 1975 복사"/>
<g id="layer" vectornator:layerName="layer"/>
<g id="layer_2" vectornator:layerName="layer"/>
<g id="layer_3" vectornator:layerName="layer">
<path d="M598.799 179.087C587.137 183.551 597.829 317.838 597.881 322.162C597.937 326.775 599.333 330.272 592.652 331.533C585.97 332.793 476.776 331.83 470.174 330.914C463.572 329.997 461.914 325.578 461.914 325.578C460.822 316.403 462.478 251.235 462.447 243.122C462.417 235.009 464.098 227.768 457.047 231.169C449.996 234.57 416.124 239.123 400.547 269.761C384.97 300.398 407.153 334.901 399.992 333.155C392.831 331.409 249.102 337.752 240.887 339.153C232.672 340.553 234.032 343.68 235.465 349.761C236.899 355.843 261.856 404.923 264.708 418.151C267.559 431.378 275.807 426.731 275.807 426.731C297.547 419.648 454.319 413.624 460.932 413.818C467.545 414.011 466.033 414.543 466.033 414.543C467.419 414.766 461.231 418.578 461.231 418.578C392.489 447.974 356.683 493.562 356.683 493.562C323.573 548.44 360.141 591.963 360.141 591.963C408.624 644.901 474.058 620.253 501.765 596.808C529.472 573.363 524.3 526.171 523.11 518.792C521.92 511.413 525.073 510.788 525.073 510.788C532.745 508.757 587.81 486.7 588.425 486.625C589.041 486.55 590.554 487.18 591.841 489.123C593.127 491.065 592.364 508.412 592.652 517.554C592.94 526.697 589.663 528.376 589.663 528.376C583.829 532.39 533.831 555.836 530.175 558.6C526.519 561.365 527.012 562.172 528.147 565.111C529.282 568.05 550.212 604.295 551.627 606.157C553.041 608.019 552.625 608.276 554.7 607.758C556.775 607.239 587.893 587.456 590.837 586.562C593.781 585.668 593.057 590.618 593.057 590.618C589.328 613.424 600.074 765.697 599.909 772.391C599.744 779.086 602.273 781.823 607.102 779.414C611.931 777.005 666.498 748.463 669.451 747.226C672.404 745.989 673.143 747.951 673.143 747.951C675.751 753.629 676.572 767.859 678.224 809.959C679.875 852.058 672.643 850.559 682.834 859.65C693.025 868.74 722.055 895.602 723.688 896.918C725.321 898.234 730.145 904.278 738.48 896.662C746.816 889.046 748.031 886.843 762.408 874.122C776.785 861.4 808.996 836.249 813.743 830.834C818.489 825.419 823.625 829.831 823.625 829.831C833.656 835.711 866.661 856.092 911.567 841.058C956.472 826.024 971.609 799.448 980.575 783.576C989.541 767.705 989.988 754.12 989.988 754.12C988.92 714.311 958.234 703.094 946.53 698.389C934.826 693.683 936.882 704.728 936.882 704.728C940.327 730.873 926.188 751.345 926.188 751.345C903.814 772.716 884.388 764.28 872.825 759.264C861.263 754.249 849.845 730.943 863.882 712.775C877.919 694.607 888.653 683.008 918.44 658.602C948.226 634.195 998.511 615.594 1004.57 614.204C1010.62 612.814 1014.9 609.397 1015.05 608.953C1015.2 608.509 1026.31 588.997 1026.47 588.633C1026.63 588.269 1037.12 571.742 1038.7 568.931C1040.27 566.121 1034.71 565.879 1034.71 565.879C1020.65 564.236 915.95 563.537 914.534 563.019C913.117 562.501 912.389 562.207 911.673 560.073C910.957 557.94 914.997 519.898 915.302 518.515C915.607 517.131 917.085 513.684 912.954 512.687C908.823 511.691 865.139 493.767 856.689 491.535C848.238 489.302 848.727 497.789 848.727 497.789C851.169 522.701 851.796 556.303 851.865 560.073C851.933 563.843 849.026 564.769 849.026 564.769C820.314 570.239 739.969 573.343 734.51 573.392C729.051 573.442 700.649 573.377 695.641 572.261C690.634 571.145 684.833 574.423 688.576 581.909C692.319 589.396 737.711 635.74 738.843 636.787C739.975 637.834 744.63 642.778 745.972 643.34C747.315 643.901 748.05 643.936 749.281 643.852C750.512 643.768 752.781 643.084 752.781 643.084C767.259 637.262 835.476 626.056 840.104 624.428C844.731 622.8 913.82 615.057 916.028 615.079C918.236 615.102 921.085 615.231 920.809 616.082C920.533 616.934 916.839 618.366 916.839 618.366C896.607 623.241 834.59 655.725 819.207 669.701C803.824 683.677 789.138 697.151 784.628 713.373C780.118 729.594 780.5 739.564 781.341 751.708C782.182 763.852 790.6 783.362 791.01 785.988C791.421 788.615 789.303 790.471 789.303 790.471C784.475 793.818 750.45 812.599 747.339 814.569C744.226 816.539 742.408 817.323 742.408 817.323C740.473 803.611 745.36 778.615 747.146 754.761C748.933 730.906 755.984 699.264 756.133 695.165C756.282 691.067 753.827 690.79 753.827 690.79C753.827 690.79 717.154 666.469 714.254 665.24C711.353 664.011 708.811 665.282 708.811 665.282L673.464 686.115C673.464 686.115 671.392 687.391 670.838 687.375C670.284 687.358 670.155 686.606 670.155 686.606L670.305 683.874C671.35 577.656 676.453 490.6 676.601 467.607C676.749 444.614 679.464 410.497 679.611 407.926C679.758 405.356 681.404 404.511 681.404 404.511C691.846 404.663 736.768 404.65 739.804 405.963C742.839 407.276 742.194 409.186 742.194 409.186C739.569 426.847 725.214 447.911 724.137 450.531C723.059 453.151 725.225 456.081 725.225 456.081C744.462 471.025 749.648 481.985 758.865 487.949C768.082 493.912 774.19 489.123 774.19 489.123C787.439 482.051 799.719 473.342 848.706 471.3C897.692 469.257 954.786 491.767 962.005 494.608C969.223 497.45 976.583 492.623 976.583 492.623C1025.51 466.701 1037.31 429.177 1038.46 423.444C1039.61 417.712 1037.57 417.51 1037.57 417.51C1004.76 421.441 970.927 423.359 970.927 423.359C926.081 423.904 931.245 424.173 893.765 419.538C856.285 414.903 819.122 399.09 819.122 399.09C819.888 397.498 821.043 397.425 821.043 397.425C852.674 397.011 1038.52 386.432 1057.91 386.283C1077.3 386.133 1097.47 383.51 1108.37 383.38C1119.26 383.249 1119.85 382.59 1119.85 382.59C1138.68 368.764 1144.53 357.239 1151.78 347.734C1159.03 338.228 1149.99 337.808 1149.99 337.808C1127.07 337.808 814.959 330.572 814.959 330.572C813.983 330.582 812.702 329.344 812.27 328.075C811.838 326.806 812.641 321.755 813.294 319.238C813.948 316.722 815.045 316.399 815.045 316.399C817.491 314.947 827.262 311.758 841.214 307.669C855.165 303.58 932.143 297.296 932.143 297.296C950.891 293.909 997.141 294.53 1000.02 294.627C1002.9 294.725 1003.71 293.496 1003.71 293.496C1007.52 286.564 1025.1 264.636 1025.66 264.04C1026.21 263.444 1028.67 259.613 1029.11 256.932C1029.56 254.252 1022.71 253.197 1022.71 253.197C1016.44 251.474 887.246 244.04 876.838 243.207C866.431 242.375 777.317 241.794 771.48 241.607C765.643 241.419 763.454 242.823 763.454 242.823C754.005 249.744 734.877 271.695 734.596 272.386C734.314 273.077 723.814 289.088 723.646 289.675C723.477 290.262 723.001 294.263 723.027 295.118C723.052 295.973 734.773 320.44 734.617 322.568C734.461 324.696 733.436 327.014 732.184 327.114C730.932 327.215 692.23 325.698 690.241 324.83C688.252 323.963 687.978 321.586 687.978 321.586C686.841 319.062 691.916 264.267 694.574 258.213C697.232 252.159 691.991 247.604 691.991 247.604L604.455 181.585L601.446 180.005C600.46 179.072 599.576 178.79 598.799 179.087ZM595.715 411.018C595.715 411.018 595.33 436.106 595.385 438.724C595.439 441.342 595.191 444.662 591.718 445.608C588.246 446.553 464.435 491.113 461.698 492.175C458.962 493.238 455.553 493.878 460.723 506.026C465.892 518.174 465.817 544.858 443.814 551.497C421.81 558.136 406.41 541.498 418.792 511.452C431.173 481.406 481.252 426.481 548.771 413.091C548.771 413.091 583.518 405.304 592.765 407.33C592.765 407.33 594.645 407.617 595.715 411.018ZM854.965 917.452C854.965 917.452 854.361 912.27 860.177 906.493C860.177 906.493 864.31 901.636 872.214 902.024C880.119 902.412 885.798 903.033 888.105 905.342C890.413 907.65 887.902 914.276 887.472 915.263C887.041 916.25 885.88 920.26 882.235 918.337C878.59 916.413 875.249 914.908 874.708 915.104C874.168 915.299 872.666 916.155 872.801 916.831C872.936 917.507 873.071 918.077 874.693 918.843C876.315 919.609 888.707 924.733 889.729 926.521C890.751 928.309 891.836 930.261 891.664 935.245C891.491 940.23 890.75 945.392 886.837 948.383C882.924 951.373 876.547 953.436 874.089 953.614C871.631 953.792 865.357 953.336 863.865 952.784C862.373 952.232 854.727 949.685 853.186 947.872C853.186 947.872 852.374 947.317 853.067 945.536C853.76 943.755 854.859 939.587 855.559 935.309C856.259 931.031 856.971 932.009 859.142 933.293C861.313 934.577 868.812 940.243 874.464 937.845C874.464 937.845 874.876 936.222 873.347 935.565C871.818 934.908 859.818 931.99 857.061 926.804C854.305 921.618 855.085 917.728 854.965 917.452ZM895.719 948.43C895.719 948.43 895.496 910.749 895.645 907.636C895.794 904.524 895.544 903.907 897.728 902.399C899.912 900.891 908.574 902.553 911.338 901.854C914.102 901.156 914.425 904.105 913.67 907.625C912.915 911.145 912.077 925.453 912.551 932.866C913.026 940.279 913.641 946.681 913.978 949.512C914.315 952.343 912.505 953.138 906.702 953.089C900.9 953.041 895.584 954.131 895.802 950.667L895.719 948.43ZM919.204 911.605C918.885 916.615 918.504 914.768 919.201 919.841C919.898 924.915 919.938 931.863 919.647 937.056C919.356 942.25 918.233 948.498 918.149 950.074C918.065 951.65 918.523 952.335 919.214 952.642C919.904 952.95 921.784 953.167 926.605 952.991C931.425 952.816 934.565 953.071 936.123 952.475C937.681 951.88 937.715 951.65 937.676 949.909C937.638 948.168 937.064 939.847 932.923 932.179C928.782 924.512 922.894 914.118 921.86 913.348C921.86 913.348 919.227 911.243 919.204 911.605ZM921.067 903.311C921.067 903.311 929.889 903.714 930.368 903.752C930.848 903.79 934.962 903.464 936.97 905.248C938.979 907.031 941.29 911.928 942.189 913.545C943.087 915.162 943.48 916.299 945.553 917.364C945.553 917.364 946.049 916.443 946.115 914.842C946.181 913.241 945.227 909.273 944.974 906.988C944.722 904.703 944.619 902.859 951.309 903.345C951.309 903.345 957.654 903.358 960.435 903.245C960.435 903.245 963.132 904.896 963.171 906.287C963.211 907.677 961.834 932.527 963.391 949.756C963.391 949.756 964.208 954.244 958.333 952.955C958.333 952.955 954.621 952.59 953.083 952.616C951.546 952.642 947.545 953.524 945.194 948.341C942.843 943.158 927.98 914.766 921.935 907.775C921.935 907.775 917.586 904.638 919.796 903.6C919.796 903.6 920.264 903.253 921.067 903.311ZM967.071 917.342C967.744 915.427 969.515 912.174 972.837 909.58C976.158 906.986 977.968 905.064 981.364 903.46C984.76 901.855 989.96 901.328 993.885 902.101C997.81 902.874 997.666 902.603 998.427 902.996C999.189 903.389 1000.92 904.314 1000.93 908.113C1000.95 911.912 1001.66 921.464 1001.48 922.401C1001.31 923.338 1000.81 923.96 1000.68 924.141C1000.68 924.141 999.838 923.565 997.915 921.517C995.991 919.469 989.994 916.514 986.543 923.225C983.093 929.935 988.922 935.386 993.23 935.112C997.538 934.838 1000.4 931.693 1001.44 930.874C1001.44 930.874 1001.98 934.148 1002.09 938.461C1002.2 942.773 1002.05 947.252 1001.96 948.25C1001.87 949.247 1001.1 952.261 997.97 952.72C994.838 953.179 990.934 953.293 987.908 953.094C984.882 952.895 976.525 951.932 971.169 944.916C965.814 937.9 966.074 936.702 966.046 930.587C966.017 924.473 966.788 918.146 967.071 917.342ZM1069.25 909.335C1068.9 918.533 1070.31 915.44 1073.8 916.582C1077.29 917.724 1075.73 921.135 1075.57 926.662C1075.41 932.189 1075.02 948.374 1076.16 950.767C1077.29 953.16 1078.56 953.124 1081.59 953.15C1084.62 953.176 1089.45 953.398 1090.82 952.19C1092.19 950.982 1091.55 950.831 1091.66 947.261C1091.77 943.69 1092.41 936.189 1091.61 921.619C1091.61 921.619 1091.28 921.261 1092.21 918.904C1092.21 918.904 1092.3 914.708 1091.51 905.677C1091.51 905.677 1092.15 902.142 1079.96 903.38C1079.96 903.38 1071.03 902.863 1070.2 903.749C1069.36 904.634 1068.97 905.444 1069.07 907.083C1069.16 908.722 1069.29 908.234 1069.25 909.335ZM1009.29 903.269C1011.23 903.24 1033.66 903.207 1034.91 903.422C1036.16 903.636 1038.24 905.941 1038.42 907.987C1038.59 910.032 1038.55 915.109 1038.21 915.972C1037.87 916.836 1036.75 917.055 1035.44 916.74C1034.13 916.426 1029.35 915.372 1025.34 917.126C1021.33 918.881 1020 919.261 1019.25 920.58C1018.5 921.899 1018.65 922.507 1018.63 924.178C1018.61 925.848 1018.55 929.778 1018.66 931.196C1018.77 932.614 1019.63 934.353 1020.24 935.286C1020.24 935.286 1021.51 933.639 1021.74 932.856C1021.96 932.072 1022.26 927.31 1022.05 925.904C1021.83 924.498 1022.05 922.723 1023.62 922.227C1025.18 921.731 1033.23 920.261 1034.81 920.4C1036.4 920.54 1036.98 921.727 1037.04 923.156C1037.09 924.584 1037.58 930.71 1036.27 932.002C1034.96 933.293 1033.55 933.434 1031.46 933.283C1029.38 933.133 1025.13 932.98 1024.64 933.405C1024.64 933.405 1023.93 935.437 1024.14 935.603C1024.14 935.603 1026.64 937.603 1030.47 937.307C1034.31 937.01 1036.07 936.762 1038.38 936.629C1040.7 936.495 1039.3 937.536 1039.83 949.437C1039.83 949.437 1040.38 953.803 1034.06 953.189C1027.74 952.575 1015.17 953.741 1008.1 952.797C1008.1 952.797 1005.7 952.944 1006.41 946.92C1007.11 940.896 1007.29 933.984 1007.39 928.985C1007.49 923.987 1007.95 918.104 1007.36 913.073C1006.77 908.042 1006.31 907.515 1006.35 906.146C1006.39 904.777 1006.48 903.91 1007.65 903.622C1008.82 903.335 1009.01 903.273 1009.29 903.269ZM1122.35 925.693C1122.35 925.693 1116.22 922.435 1118.77 917.507C1121.33 912.579 1128.79 913.543 1130.24 917.03C1131.69 920.517 1130.89 922.823 1123.97 933.395C1117.05 943.968 1111.37 949.617 1110.7 950.631C1110.03 951.645 1109.82 953.055 1111.76 953.209C1113.7 953.364 1122.15 953.36 1123.91 952.964C1125.67 952.568 1127.32 952.025 1130.54 948.437C1133.75 944.849 1145.56 928.185 1146.08 924.596C1146.61 921.006 1147.58 914.405 1140.92 906.683C1140.92 906.683 1127.56 896.929 1111.38 904.57C1111.38 904.57 1095.17 912.861 1105.41 931.389C1105.41 931.389 1109.35 937.076 1114.32 937.608C1114.32 937.608 1116.35 938.496 1119.04 935.291C1119.04 935.291 1119.94 933.196 1121.66 931.288C1123.38 929.38 1123.92 928.869 1124.51 927.516C1125.1 926.162 1122.82 926.089 1122.35 925.693ZM1190.55 903.262L1152.93 903.172C1152.93 903.172 1147.67 902.859 1148.45 909.877C1149.23 916.895 1148.93 917.878 1151.77 917.457C1154.61 917.036 1160.29 916.054 1163.32 916.182C1166.35 916.31 1169.5 909.381 1171.11 907.675C1171.11 907.675 1172 906.544 1173.76 907.23C1173.76 907.23 1174.09 908.587 1172.65 910.599C1171.21 912.611 1147.08 949.514 1146.75 951.716C1146.42 953.918 1150.32 953.167 1155.86 953.066C1161.41 952.964 1163.07 954.558 1167.18 947.666C1171.28 940.774 1174.46 935.89 1176.32 931.762C1178.19 927.633 1181.9 921.581 1190.34 908.051C1190.34 908.051 1191.24 907.14 1192.35 906.658C1193.46 906.177 1193.75 905.057 1194.14 904.569C1194.14 904.569 1191.85 903.174 1190.55 903.262ZM1217.27 914.123C1217.27 914.123 1215.79 906.121 1218.76 903.248C1218.76 903.248 1220.15 901.698 1222.81 901.818C1225.47 901.938 1225.21 901.718 1227.39 901.817C1229.56 901.916 1230.5 903.326 1230.36 906.901C1230.23 910.475 1230.44 910.727 1230.47 913.716C1230.5 916.705 1224.32 916.939 1221.95 916.293C1219.57 915.647 1217.45 914.843 1217.27 914.123ZM1209.33 901.864C1209.33 901.864 1216.96 901.182 1214.4 908.469C1211.83 915.755 1213.64 917.664 1216.13 917.924C1218.62 918.184 1230.28 918.398 1233.5 930.473C1236.72 942.548 1226.52 955.093 1212.53 954.092C1198.54 953.092 1197.04 950.571 1195.34 949.451C1193.65 948.332 1195.88 940.403 1196 938.281C1196.11 936.158 1196.14 935.959 1196.28 935.215C1196.42 934.471 1199.16 936.461 1205.66 939.118C1212.16 941.775 1214.28 940.992 1215.87 938.851C1217.45 936.709 1218.29 933.763 1216.14 931.507C1213.98 929.251 1214.46 929.333 1208.64 929.154C1202.82 928.974 1203.55 928.584 1199.96 930.579C1196.37 932.573 1197.64 928.548 1197.83 926.575C1198.01 924.602 1200.16 906.812 1202.47 904.075C1204.78 901.338 1207.65 901.852 1209.33 901.864ZM304.271 280.245M297.985 306.623L297.985 313.454L315.744 313.454L315.744 321.65L289.788 321.65L289.788 297.744L305.498 297.744L305.498 290.913L289.788 290.913L289.788 282.034L313.694 282.034L313.694 290.23C313.694 290.23 313.664 290.598 313.359 290.594C313.053 290.59 313.023 290.761 313.034 290.942C313.045 291.124 313.011 297.744 313.011 297.744C313.011 297.744 313.085 298.132 313.399 298.138C313.713 298.145 313.682 298.196 313.686 298.42C313.689 298.644 313.694 301.842 313.694 301.842L313.69 302.138C313.69 302.138 313.018 302.18 313.005 302.567C312.992 302.954 313.011 306.623 313.011 306.623L297.985 306.623ZM313.694 290.913L321.891 290.913L321.891 279.985L331.453 279.985L331.453 327.114L321.891 327.114L321.891 309.355L313.694 309.355L313.694 302.525L321.891 302.525L321.891 297.744L313.694 297.744L313.694 290.913ZM352.628 278.619L352.628 283.4L343.065 283.4L343.065 292.962L345.797 292.962C345.797 292.962 358.092 284.083 371.753 292.962L374.485 292.962L374.485 283.4L364.922 283.4L364.922 278.619L352.628 278.619ZM373.802 279.302L373.802 282.717L375.168 282.717L375.168 293.646L373.802 293.646L373.802 295.695C376.534 300.476 373.802 304.574 373.802 304.574L373.802 313.454L384.047 313.454L384.047 303.208L388.146 303.208L388.146 294.329L384.047 294.329L384.047 279.302L373.802 279.302ZM359.116 290.913C351.006 290.913 344.431 295.195 344.431 300.476C344.431 305.757 351.006 310.038 359.116 310.038C367.227 310.038 373.802 305.757 373.802 300.476C373.802 295.195 367.227 290.913 359.116 290.913ZM359.458 297.061C362.099 297.061 364.239 298.437 364.239 300.134C364.239 301.832 362.099 303.208 359.458 303.208C356.817 303.208 354.677 301.832 354.677 300.134C354.677 298.437 356.817 297.061 359.458 297.061ZM344.431 311.405L344.431 325.748L386.096 325.748L386.096 317.552L354.677 317.552L354.677 311.405L344.431 311.405ZM244.024 279.302L244.024 284.766L233.779 284.851L233.95 293.027L238.539 293.069C238.539 293.069 249.489 285.449 261.1 293.646L264.516 293.646L264.516 284.766L254.27 284.766L254.27 279.302L244.024 279.302ZM265.199 279.302L265.199 311.405C265.199 311.405 265.908 311.453 266.159 311.661C266.41 311.869 266.406 311.906 266.394 312.643C266.382 313.379 266.33 320.583 266.33 320.583C266.33 320.583 266.348 320.847 265.946 321.01L265.199 320.967L265.199 326.431L275.444 326.431L275.444 307.306L280.909 307.306L280.909 297.061L275.444 297.061L275.444 279.302L265.199 279.302ZM249.489 290.913C241.944 290.913 235.828 295.065 235.828 300.177C235.828 304.196 239.66 307.521 244.942 308.8L244.985 307.904L244.985 307.861L245.028 307.861L249.531 307.861L254.078 307.861L254.078 307.904L254.099 308.8C259.35 307.51 263.15 304.181 263.15 300.177C263.15 295.065 257.033 290.913 249.489 290.913ZM249.489 296.378C252.481 296.378 254.91 298.055 254.91 300.113C254.91 302.171 252.481 303.827 249.489 303.827C246.496 303.827 244.067 302.171 244.067 300.113C244.067 298.055 246.496 296.378 249.489 296.378ZM245.391 308.672L245.391 312.088L232.413 312.088C232.413 312.088 233.616 319.651 234.419 320.754C235.222 321.856 236.466 322.331 238.539 322.013C240.612 321.695 240.078 321.205 242.658 320.967L263.15 320.284L265.199 320.284L265.882 320.284L265.882 312.088L265.199 312.088L253.587 312.088L253.587 308.672L245.391 308.672Z" fill="#ff0000" fill-rule="evenodd" opacity="1" stroke="none"/>
</g>
</svg>
